<svg width="626" height="626" viewBox="0 0 626 626" fill="none" xmlns="http://www.w3.org/2000/svg">
<path d="M23.9222 23.9222C55.3594 -7.515 106.329 -7.515 137.766 23.9222L601.628 487.784C633.066 519.221 633.066 570.191 601.628 601.628C570.191 633.066 519.221 633.066 487.784 601.628L23.9222 137.766C-7.51503 106.329 -7.51501 55.3594 23.9222 23.9222Z" fill="#D9D9D9"/>
<path d="M23.9221 601.628C-7.51506 570.191 -7.51506 519.221 23.9221 487.784L487.784 23.9221C519.221 -7.51507 570.191 -7.51506 601.628 23.9221C633.066 55.3594 633.066 106.329 601.628 137.766L137.766 601.628C106.329 633.066 55.3593 633.066 23.9221 601.628Z" fill="#D9D9D9"/>
</svg>
