<?xml version="1.0" encoding="utf-8"?>
<!-- Generator: Adobe Illustrator 23.0.3, SVG Export Plug-In . SVG Version: 6.00 Build 0)  -->
<svg version="1.1" id="Calque_1" xmlns="http://www.w3.org/2000/svg" xmlns:xlink="http://www.w3.org/1999/xlink" x="0px" y="0px"
	 viewBox="0 0 948.5 948.5" style="enable-background:new 0 0 948.5 948.5;" xml:space="preserve">
<style type="text/css">
	.whitew1{fill:#ECECEC;}
	.whitew2{fill:#232323;}
	.whitew3{opacity:0.2;enable-background:new    ;}
	.whitew4{fill:#E6313B;}
	.whitew5{opacity:0.6;enable-background:new    ;}
	.whitew6{opacity:0.5;}
	.whitew7{opacity:5.000000e-02;enable-background:new    ;}
</style>
<title>white_wolf</title>
<g id="Calque_5">
	<path class="whitew1" d="M500.2,207.1c0,0,42-92.5,77.5-106c0,0,1.5,153,13,164.5S500.2,207.1,500.2,207.1z"/>
	<path class="whitew2" d="M571.5,119.5c0,0-32.8,91.8-29.5,108.5s35,18.3,35,18.3L571.5,119.5z"/>
	<path class="whitew3" d="M500.2,207.1c0,0,42-92.5,77.5-106c0,0,1.5,153,13,164.5S500.2,207.1,500.2,207.1z"/>
</g>
<g id="Calque_4">
	<path class="whitew1" d="M754.9,543.8c-28,0.5-142-10.5-156.7-8.3s-33.7-6.9-31.3-16.9s91,11.7,140.3,16.3s111-21,111-21
		s-20.7-24-28-36s-0.7-44.7,22.7-38c-10-16.7-77.3-38.7-113.3-46.7S694.9,326,634.9,270s-122-58-122-58L499.6,90.6
		c-48.7,35.4-96,135.4-96,135.4c-99.3,8.7-163.3,156-163.3,156c-78,33.3-148,134.7-148,134.7c16.7-8.7,45.3-8,31.5,9.3
		s17.8,8,5.2,22.7s2.7,24-2.7,36s18,12,10.7,18s20,18.7,20,18.7l5.3,6.7c5.3,6.7-2,32.7,2.7,44.7s33.3,24.7,37.3,44
		s17.3,10.7,24.7,32s20.7,15.3,26,28s31.3,20.7,39.3,17.3s31.3,11.3,38.7,11.3s40.7,28.7,59.3,36s-1.3,30.7,71.3,4.7
		s80.7-152.7,76.7-180s22-76.7,22-76.7c10.7,0,63.3-17.3,69.7-20s40.3-2,80.3-4C740.9,563.8,751.6,550.1,754.9,543.8L754.9,543.8z"
		/>
	<path class="whitew4" d="M643.6,369.3c0,0-54-52.7-120-32.7c0,0,48,49.3,63.3,50S643.6,369.3,643.6,369.3z"/>
	<path class="whitew2" d="M854.9,464c-10-15.3-42-24-42-24c-23.3-6.7-30,26-22.7,38s28,36,28,36S864.9,479.3,854.9,464z"/>
	<path class="whitew2" d="M707.2,535c-49.3-4.7-138-26.3-140.3-16.3c-2.3,10,16.7,19.1,31.3,16.9s128.7,8.7,156.7,8.3l0,0
		c0.5-1,1-2.1,1.3-3.2c24.7-0.7,62-26.7,62-26.7S756.6,539.6,707.2,535z"/>
	<path class="whitew2" d="M442.2,268.3c0,0,34.3-132,53-155.3c0,0-8.7,86.7,5,116.3L442.2,268.3z"/>
	<path class="whitew5" d="M495.2,113c-18.7,23.3-53,155.3-53,155.3l58-39C477.4,228.7,460.8,253.9,495.2,113z"/>
	<g class="whitew6">
		<path class="whitew7" d="M643.6,369.3c0,0-54-52.7-120-32.7C560.6,337.1,586.2,332.6,643.6,369.3z"/>
		<polygon class="whitew7" points="643.6,369.3 643.6,369.3 643.6,369.3 		"/>
	</g>
</g>
<g id="Calque_6">
	<path class="whitew7" d="M598.2,535.5c-14.7,2.2-33.7-6.9-31.3-16.9c-41.8-6.5-73.3,86-73.3,86c-10-0.3-35.7,7.3-35.7,7.3
		c0-3.7,7.7-8.7,7.7-8.7c-9.3-4.3-49-5.7-49-5.7c0.3-10,13.7-33.3,13.7-33.3c-25.7-9.3-76-7-76-7c-0.7-17.3,7.7-36.7,7.7-36.7
		c-11-7.3-52.3-13.7-52.3-13.7c0-13,28.7-45.7,28.7-45.7c-7.3-3.7-43-7.7-43-7.7c21.3-39,108-73,108-73
		c-111.3,2.3-158.3,96-158.3,96c15-7.7,46,7,46,7c-29.7,35-20,70.7-20,70.7c35.3-12.7,51.3,0,51.3,0c-17.3,16.3-3,40.3-3,40.3
		c38-12.7,64.3-2.3,64.3-2.3c-8.3,15-10.7,47.3-5,39.7s51.3-6.7,32.7,2.7s-20.3,29.7-20.3,29.7c23-11.7,30-3,11.7,4.7s-36,33-36,33
		c15.3-11,32.3-6.7,32.3-6.7c-28.7,14.9-60.2,65.2-81.7,105.4c5.8,2.5,10.9,4.6,13.7,4.6c7.3,0,40.7,28.7,59.3,36
		s-1.3,30.7,71.3,4.7s80.7-152.7,76.7-180s22-76.7,22-76.7c10.7,0,63.3-17.3,69.7-20s40.3-2,80.3-4c30.7-1.5,41.3-15.2,44.7-21.5
		l0,0C726.9,544.3,612.9,533.3,598.2,535.5z"/>
	<path class="whitew7" d="M854.9,464c-29.2,13.2-64.7-13.3-64.7-13.3s-95.5-17.5-122-43.5s-24.7-37.8-24.7-37.8s-41.3,18-56.7,17.3
		s-63.3-50-63.3-50s-109.8-31.5-104.8-64.5s41.2-143.5,80.8-181.5c-39.1,28.4-77.3,98.5-90.9,125c-1.4,3.1-3.1,6.6-5.1,10.4
		c-28.7,52-47.3,74.7-22.7,92.7s43.3,51.3,43.3,51.3s38.7,9.1-21,10.7c-71.3,1.8-128.3,41.3-158.3,96c-25.3,46-84.7,115.3-80,196
		c4.7,12,33.3,24.7,37.3,44s17.3,10.7,24.7,32s20.7,15.3,26,28c5.3,12.7,31.3,20.7,39.3,17.3s31.3,11.3,38.7,11.3s40.7,28.7,59.3,36
		s-1.3,30.7,71.3,4.7s80.7-152.7,76.7-180s22-76.7,22-76.7c10.7,0,63.3-17.3,69.7-20s40.3-2,80.3-4c30.7-1.5,41.3-15.2,44.7-21.5
		l0,0c-28,0.5-142-10.5-156.7-8.3s-33.7-6.9-31.3-16.9s91,11.7,140.3,16.3s111-21,111-21S864.9,479.3,854.9,464z"/>
	<path class="whitew7" d="M512.9,212c0,0,2.6,11.7,3.3,11.9s31.1-5.2,31.1-5.2C536.2,215.2,524.6,213,512.9,212z"/>
</g>
</svg>
