<?xml version="1.0" encoding="utf-8"?>
<!-- Generator: Adobe Illustrator 23.0.3, SVG Export Plug-In . SVG Version: 6.00 Build 0)  -->
<svg version="1.1" id="Calque_1" xmlns="http://www.w3.org/2000/svg" xmlns:xlink="http://www.w3.org/1999/xlink" x="0px" y="0px"
	 viewBox="0 0 948.5 948.5" style="enable-background:new 0 0 948.5 948.5;" xml:space="preserve">
<style type="text/css">
	.merc1{fill:#382C21;}
	.merc2{opacity:0.3;enable-background:new    ;}
	.merc3{opacity:0.4;enable-background:new    ;}
	.merc4{fill:#737373;}
	.merc5{fill:#808080;}
	.merc6{fill:#999999;}
	.merc7{fill:#8C8C8C;}
	.merc8{fill:#CCCCCC;}
	.merc9{opacity:0.2;enable-background:new    ;}
	.merc10{opacity:0.1;fill:#FFFFFF;enable-background:new    ;}
	.merc11{opacity:0.1;enable-background:new    ;}
	.merc12{opacity:0.3;fill:#FFFFFF;enable-background:new    ;}
</style>
<title>mercenary</title>
<g id="Calque_5">
	<path class="merc1" d="M349.7,436.6c-45-12.8-194-3-194-3c-14,15.3-81.6,49-111.1,73c-30.9,25.1,37.5,75.7,46.2,78.2
		s242.5-81.7,252.8-76.6s36.6,10.9,38-8.3C382.9,481.3,395.7,449.6,349.7,436.6z"/>
	<path class="merc2" d="M349.7,436.6c-45-12.8-194-3-194-3c-2.9,2.9-6,5.6-9.4,7.9c44,7.4,107.7,19.8,127.5,26.5
		c24.1,8.3,39.5,4.8,43.9,12.5s-1.2,12.4-4,19.5s-46.3,25-65.9,24.9s-182.1,9-180.2,17.9s38.7,34.7,23.3,42
		c8.8,2.5,242.5-81.7,252.8-76.6s36.6,10.9,38-8.3C382.9,481.3,395.7,449.6,349.7,436.6z"/>
	<path class="merc1" d="M884.3,548.7c-6.3-11-13.8-8.8-60.1-23.5c0,0-181.4-35.7-202.5-50.2c-20.6-14.1-156.2-26.8-194.8,9.6
		c-41.7,39.3-280.4,138.2-288,140.2s0,93.3,291.4,110.9c294.5,17.8,397-50,423.9-89.9C879.4,608.5,890.8,559.9,884.3,548.7z"/>
	<path class="merc2" d="M884.3,548.7c-6.3-11-13.8-8.8-60.1-23.5c0,0-181.4-35.7-202.5-50.2c-20.6-14.1-156.2-26.8-194.8,9.6
		c-41.7,39.3-280.4,138.2-288,140.2c-1.8,0.5-2.8,5.8,0.6,13.8c1.2,0.6,2.3,2.6,3.7,7c1,1.6,2.2,3.3,3.5,5
		c17.6,16,89.1,25.8,99.6,15C257.8,654,382.1,535.1,395,530.4s168-31,176.7-21.1c8.9,10.2,63.6,106.6,143.1,130.5
		c40.6,12.2,164.7-101.9,171-86C885.6,552.1,885.1,550.3,884.3,548.7z"/>
	<path class="merc1" d="M903.5,445.7c-10.4-18.7-62.8-24.5-75.8-35.3c-12.7-10.6-89.4-38.1-108-42.1s-75.9-0.6-83.6-3.1
		s-241.4,39-258.8,35.9s-43.5-17.2-106-18.2c-62.7-1-129.1,46.1-129.5,47.2s124.2,25.9,155,50.5c0,0,303.3-62.8,345.8-53.6
		c43.2,9.3,230.1,79.7,238.5,82.1S914.3,465.2,903.5,445.7z"/>
	<path class="merc2" d="M903.5,445.7c-13.3-17-171.6-12.6-195.5-13.9c-15.4-0.8,11.9,10,4,16.4c76.8,25.7,163.2,59.2,169.2,60.9
		C889.7,511.6,914.3,465.2,903.5,445.7z"/>
	<path class="merc1" d="M903.5,445.7c-3.1-7.3-223.5-12-251.8-19.2c0,0-148.6-11.1-91.7,73.7c67.7,101,150.1,123.7,157.5,124
		s94.7-56.7,131.1-93.8C882.5,495.9,906.7,453.1,903.5,445.7z"/>
	<path class="merc1" d="M387.5,494.5c-8.7-5.2-25.1,19.2-30.7,20s-41.8-17.2-41.8-17.2C252.6,524.7,78.6,542.6,82,546.2
		s50.1,63,92.9,84.6c44.3,22.3,46.4,34.6,51.7,34.8s115.1-98.4,147.1-108.9C405,546.3,396.3,499.8,387.5,494.5z"/>
	<path class="merc1" d="M902.7,452.9c1.5-3.8,2.8-2.3,3.2,0.6c0,0,0.4-5.5-2.4-7.8s-5.1,6.8-5.1,6.8L902.7,452.9z"/>
	<polygon class="merc1" points="318.7,493.3 295,509.3 320.4,568.7 368.8,589.9 437.4,601.7 516.7,585 557,527.7 536,507.3 
		432.2,515.3 383.4,523.4 	"/>
	<polygon class="merc3" points="318.7,493.3 295,509.3 320.4,568.7 368.8,589.9 437.4,601.7 516.7,585 557,527.7 536,507.3 
		432.2,515.3 383.4,523.4 	"/>
</g>
<g id="Calque_4">
	<path class="merc4" d="M491.8,320.7c-5.8-0.4-16.7-5.8-22.6-5.8c-107.1,0-188.2,102.4-173.5,205c0.3,2.1,11-28.6,29.5-23.8
		c30.5,7.9,73.8,45.6,73.8,45.6C401.3,470.1,450.2,341.1,491.8,320.7z"/>
	<path class="merc2" d="M364.4,508.7c-6.1-12-39.9-29.5-41.2-51s35.9-101.4,47.6-110.7l0,0c-53.1,38.3-84.8,105.5-75.1,172.9
		c0.3,2.1,11-28.6,29.5-23.8c13.5,3.5,29.5,12.8,43.1,22.1C366.7,513.9,365.3,510.5,364.4,508.7z"/>
	<path class="merc5" d="M491.8,311.8c-41.6,20.5-90.4,158.3-92.8,230l122.7-37.5l25.7,34l14.8,32.6l122.1-81.9
		C684.3,378.1,592.3,318,491.8,311.8z"/>
	<path class="merc6" d="M366.6,495.3c0-115.4,51.2-178.6,80.5-187.2c59-17.3,116.5-2,145.2,23.6c0,0-53.3-29.1-93.5,7
		s-66,123.5-60.5,157s-39.2,46-39.2,46L366.6,495.3z"/>
	<path class="merc7" d="M432.2,501.3c0-153.4,87.5-188.6,126-182.6s48.2,28.3,48.2,28.3s-54.5-34.7-88.4-8.8
		c-39.3,30.1-65.6,68.8-65.6,147.9S432.2,501.3,432.2,501.3z"/>
	<path class="merc8" d="M606.4,347c-8.6-9.6-19.2-17.1-31.1-22.1c-11.7-5.1-24.6-7-37.3-5.5c-6.3,0.8-12.5,2.4-18.4,4.7
		c-5.9,2.3-11.5,5.3-16.8,8.9c-10.5,7.2-19.9,16-27.8,26c-4,5-7.8,10.1-11.3,15.5c-3.5,5.3-6.7,10.9-9.5,16.6
		c-5.6,11.5-10,23.5-13.2,35.9c-3.2,12.4-5.4,25.1-6.6,37.9c-0.7,6.4-1.1,12.8-1.4,19.2c-0.3,6.4-0.4,12.9-0.4,19.3
		c-0.7-12.9-0.6-25.8,0.3-38.7c0.9-12.9,2.9-25.7,5.8-38.3c2.9-12.6,7.3-24.9,12.9-36.6c2.8-5.8,6.1-11.5,9.6-16.9
		c3.5-5.5,7.3-10.7,11.4-15.8c8.2-10,17.6-19.3,28.5-26.5c5.5-3.6,11.3-6.6,17.4-8.9c18.5-7.1,39.2-6.4,57.2,2
		c5.9,2.7,11.5,6.1,16.6,10C597.6,337.5,602.3,342.1,606.4,347z"/>
	<path class="merc6" d="M497.9,600.5c56.2-9.6,184.3-57.3,193.8-81.8s9.5-36.5,0-33.5s-59.5,38.2-110,59.6S497.9,600.5,497.9,600.5z"
		/>
	<path class="merc9" d="M317.7,480.5c3.5-0.2,7-0.2,10.5,0c3.5,0.2,7,0.6,10.5,1.2c3.5,0.5,6.9,1.4,10.3,2.3s6.8,2,10.1,3.3
		c6.6,2.5,13,5.6,19.1,9.3c3.1,1.8,6,3.8,8.9,5.9c1.5,1,2.9,2.1,4.3,3.3c0.7,0.6,1.4,1.1,2.1,1.7s1.4,1.2,2.1,1.9l-5.6-0.5
		c0.4-0.3,0.7-0.4,1-0.6l0.9-0.5c0.6-0.3,1.1-0.7,1.7-1c1.2-0.6,2.3-1.2,3.5-1.7c2.3-1.1,4.7-2,7-2.9c4.7-1.7,9.5-3.1,14.4-4.3
		c9.6-2.2,19.5-3.7,29.3-4.3c9.8-0.6,19.6-0.6,29.4,0c9.7,0.6,19.4,1.8,29,3.6l-14.6,0.5l-7.2,0.3l-7.2,0.4
		c-9.6,0.6-19.2,1.4-28.6,2.7c-4.7,0.6-9.4,1.4-14.1,2.2s-9.3,1.9-13.9,3.1c-4.5,1.1-9,2.5-13.4,4.1c-2.2,0.8-4.4,1.6-6.4,2.6
		c-1,0.5-2.1,1-3.1,1.5l-1.5,0.8l-0.7,0.4l-0.5,0.3l-0.3,0.2c-1.7,1-3.9,0.8-5.3-0.7c-0.5-0.5-1.1-1.1-1.7-1.6s-1.2-1.1-1.9-1.6
		c-1.3-1.1-2.5-2.1-3.9-3.2c-2.6-2.1-5.3-4-8.1-5.9c-5.6-3.8-11.4-7.2-17.4-10.1c-3-1.5-6.1-2.9-9.2-4.2s-6.3-2.4-9.5-3.5
		C331.1,483.3,324.4,481.7,317.7,480.5z"/>
	<path class="merc5" d="M393.9,513.8c0,0-20.7-21-57.2-29s-41.7,1.9-41.7,1.9s-4.3,69.2,21.7,90c32.4,26,61.3,11.6,61.3,11.6l-8.5-10
		c0,0-32,4-49.5-29.5s-11-45.5-11-45.5s51.5,11.5,59,43s-16.5,46.5-16.5,46.5l29.9,34.6L393.9,513.8z"/>
	<path class="merc7" d="M381.4,627.4l68.3-10.8c0,0-26-30.1-24.8-57.8c2.1-49.6,82.5-42,115-29c0,0-39,82-125.5,48
		c0,0,18,29.5,22,29.5s-21.5,6.5,23,1c38.4-4.7,85.2-14.1,104.4-64.4c5.6-14.9-1.9-31.5-16.9-37.2c-0.3-0.1-0.7-0.3-1-0.4
		c-31.5-10.5-89.3-21.5-152,7.4C388.8,515.2,370.1,607.3,381.4,627.4z"/>
	<path class="merc4" d="M433.6,305.9l17.3,12c0,3.3,14.1,6,31.4,6s31.4-2.7,31.4-6l17.3-12H433.6z"/>
	<path class="merc5" d="M530.8,305.6c-1.1-5.4-17.9-83.3-48.6-114c-30.7,30.7-47.5,108.6-48.6,114c0,0.1-0.1,0.2-0.1,0.3
		c0,3.3,21.8,6,48.7,6s48.7-2.7,48.7-6C530.9,305.8,530.9,305.7,530.8,305.6z"/>
	<path class="merc10" d="M530.8,305.6c-1.1-5.4-17.9-83.3-48.6-114c0,0,34.1,96.8,26.5,119.5c0,0-4.2,8.8-9.6,11.9
		c8.7-1.1,14.5-2.9,14.5-5.1l14.3-9.9c1.9-0.6,3-1.3,3-2.1C530.9,305.8,530.9,305.7,530.8,305.6z"/>
	<path class="merc11" d="M455.6,311.1c-7.4-21.9,24.3-113.1,26.4-119.2c-30.5,30.9-47.1,108.3-48.3,113.7c0,0.1-0.1,0.2-0.1,0.3
		c0,0.7,1,1.4,3,2.1l14.3,9.9c0,2.1,5.7,4,14.3,5C459.7,319.8,455.6,311.1,455.6,311.1z"/>
	<path class="merc11" d="M441.7,585.2c-4.1-0.6-8.2-1.4-12.2-2.5c3.5,9.9,8.6,19.1,15.1,27.3c3.4-0.3,8.9-1,14.5-1.7
		C450.9,601.1,445.5,592.5,441.7,585.2z"/>
	<path class="merc11" d="M364.4,578.4c-5.4-0.2-10.7-1.3-15.7-3.2c-1,4.9-2.6,9.8-4.8,14.4c3.5,0.5,7.1,0.8,10.6,0.9
		C358.5,587.1,361.9,583,364.4,578.4z"/>
	<path class="merc8" d="M381.4,627.4c-1.5-4.6-2.5-9.3-3-14.2c-0.2-1.2-0.3-2.4-0.4-3.6l-0.3-3.6c-0.1-2.4-0.3-4.8-0.3-7.3
		c-0.1-9.7,0.5-19.4,1.8-29c1.3-9.6,3-19.1,5.3-28.5c1.1-4.7,2.5-9.4,3.7-14l4.3-13.9l0.2-0.6l0.5-0.3c9.1-4.5,18.6-8.1,28.5-10.8
		c9.7-2.7,19.7-4.7,29.7-5.9c2.5-0.4,5-0.5,7.5-0.8l3.8-0.3l1.9-0.1l1.9,0l7.6-0.2c1.3-0.1,2.5,0,3.8,0l3.8,0.1l3.8,0.1l1.9,0.1
		l1.9,0.2l7.5,0.7c2.5,0.2,5,0.6,7.5,1l7.4,1.2l-7.5-0.8c-2.5-0.3-5-0.6-7.5-0.7l-7.5-0.4l-1.9-0.1h-1.9h-3.8
		c-20,0-39.9,2.9-59.1,8.5c-4.8,1.4-9.5,3-14.2,4.7c-4.6,1.7-9.2,3.7-13.6,5.9l0.7-0.8L391,528l-3.8,13.9
		c-2.3,9.3-4.4,18.7-5.7,28.2c-1.5,9.5-2.4,19.1-2.6,28.7c0,2.4,0,4.8,0,7.2l0.2,3.6c0,1.2,0.1,2.4,0.2,3.6s0.2,2.4,0.3,3.6l0.5,3.6
		C380.4,622.7,380.8,625.1,381.4,627.4z"/>
	<path class="merc8" d="M482.2,191.6c3.9,3.5,7.5,7.4,10.5,11.7c3.1,4.2,6,8.7,8.6,13.3c2.6,4.6,5,9.3,7.3,14s4.3,9.6,6.2,14.5
		c3.8,9.8,7.1,19.8,10,29.9s5.3,20.4,7.4,30.6l0.1,0.3v0.2c0,0.2-0.1,0.5-0.3,0.7c-0.1,0.1-0.1,0.2-0.2,0.3
		c-0.1,0.1-0.2,0.2-0.3,0.3c-0.2,0.1-0.4,0.3-0.6,0.4c-0.4,0.2-0.7,0.4-1.1,0.5c-0.7,0.3-1.4,0.5-2.1,0.7c-1.4,0.4-2.8,0.6-4.2,0.9
		c-2.8,0.5-5.6,0.8-8.4,1c-5.6,0.5-11.2,0.8-16.9,0.9c-5.6,0.1-11.2,0.2-16.8,0.1c-5.6-0.1-11.2-0.2-16.8-0.4l16.8-0.7
		c5.6-0.3,11.2-0.6,16.8-0.9s11.2-0.8,16.7-1.4c2.8-0.3,5.5-0.7,8.2-1.2c1.3-0.3,2.7-0.5,4-0.9c0.6-0.2,1.2-0.4,1.8-0.6
		c0.3-0.1,0.5-0.2,0.8-0.4c0.1-0.1,0.2-0.1,0.3-0.2l0,0v0c0,0.1,0,0-0.2,0.5v0.5c-2.3-10.2-4.7-20.4-7.6-30.4s-6-20-9.6-29.8
		c-1.9-4.9-3.7-9.7-5.8-14.5s-4.3-9.5-6.7-14.1s-5-9.2-7.9-13.5c-1.4-2.2-2.9-4.3-4.5-6.4C485.8,195.4,484.1,193.4,482.2,191.6z"/>
	<path class="merc8" d="M497.3,310.4l0.4-7.3l0-7.4c0-2.5-0.2-5-0.3-7.4s-0.3-5-0.5-7.5c-0.4-5-1-10-1.5-14.9s-1.3-10-2-14.9
		c-1.5-9.9-3.1-19.9-5-29.8c-1.9-9.9-3.8-19.8-6-29.6c2.9,9.7,5.6,19.4,8.2,29.1s5,19.6,7.2,29.5c1.1,4.9,2.1,9.9,3.1,14.9
		s1.9,10,2.6,15c0.4,2.5,0.8,5,1.1,7.6s0.7,5.1,0.9,7.6l0.6,7.7l0.2,7.9L497.3,310.4z"/>
	<path class="merc8" d="M309,503.3c-0.2,4.3,0.1,8.6,1,12.8c0.9,4.1,2,8.1,3.5,12.1c3,7.8,6.9,15.2,11.6,22.2c1.2,1.8,2.3,3.5,3.5,5.2
		l1.8,2.5l0.9,1.3l0.5,0.6c0.2,0.2,0.3,0.4,0.5,0.5l2,2.2c0.7,0.7,1.5,1.4,2.2,2.1c0.7,0.7,1.5,1.4,2.3,2l1.2,1
		c0.4,0.3,0.8,0.6,1.3,0.9c3.3,2.5,7,4.5,10.8,6.2c3.9,1.7,8,2.9,12.3,3.6c-2.2,0.4-4.4,0.6-6.6,0.5c-2.2-0.1-4.5-0.3-6.7-0.8
		c-4.5-0.9-8.7-2.5-12.7-4.8c-0.5-0.3-1-0.5-1.5-0.8l-1.4-0.9c-1-0.6-1.9-1.3-2.8-2s-1.8-1.4-2.7-2.2l-2.6-2.4
		c-3-3.4-5.7-7-8.1-10.8c-5-7.5-8.7-15.7-11-24.4c-1.1-4.4-1.6-8.9-1.6-13.4c0-1.1,0.1-2.3,0.1-3.4s0.2-2.2,0.4-3.3
		C307.5,507.5,308.1,505.3,309,503.3z"/>
	<path class="merc8" d="M429.5,582.7c11.1,1,22.1,1.5,32.8,0.1c10.6-1.3,20.9-4.3,30.5-9.1c4.8-2.4,9.3-5.2,13.6-8.3
		c1.1-0.8,2.2-1.5,3.2-2.4l3.1-2.5c2-1.8,4-3.5,6-5.5s3.8-3.9,5.7-5.8s3.7-4,5.4-6.2c3.6-4.2,6.8-8.7,10.2-13.1
		c-2.1,5.2-4.5,10.3-7.4,15.1c-1.4,2.5-3,4.8-4.6,7.1c-0.8,1.2-1.7,2.3-2.5,3.4c-0.4,0.6-0.8,1.1-1.3,1.7l-1.4,1.6
		c-0.9,1.1-1.8,2.2-2.8,3.2l-3,3.1l-3.2,2.9c-1,1-2.2,1.8-3.3,2.8s-2.3,1.8-3.4,2.6l-1.8,1.3l-1.8,1.2c-1.2,0.8-2.4,1.6-3.7,2.2
		s-2.5,1.5-3.8,2c-10.3,5.2-21.7,8-33.2,8.3C451.4,588.6,440.1,586.7,429.5,582.7z"/>
	<path class="merc8" d="M295,486.7c0.8-1,1.8-1.9,3-2.5c0.3-0.2,0.6-0.4,0.9-0.5l0.9-0.4c0.6-0.3,1.2-0.5,1.8-0.8
		c2.5-0.9,5.1-1.4,7.7-1.7c5.2-0.5,10.4-0.4,15.6,0.3l3.8,0.7c1.3,0.2,2.6,0.4,3.8,0.7l3.8,0.9l1.9,0.5l1.8,0.6
		c2.5,0.8,4.9,1.5,7.3,2.5s4.8,1.9,7.1,3c-2.5-0.4-5-1-7.5-1.6c-1.2-0.3-2.5-0.5-3.7-0.8s-2.5-0.5-3.7-0.8c-5-1-10-1.9-15-2.7
		l-3.8-0.4l-1.9-0.2l-1.9-0.1c-2.5-0.2-5-0.3-7.5-0.2c-1.2,0.1-2.5,0.1-3.7,0.2l-1.9,0.2c-0.6,0.1-1.2,0.2-1.8,0.4
		c-0.6,0.1-1.2,0.2-1.8,0.4l-0.9,0.3l-0.9,0.3c-0.6,0.2-1.2,0.5-1.7,0.7C296,485.9,295.5,486.3,295,486.7z"/>
	<path class="merc12" d="M479.4,416.7c1.9-38.6,43.4-79.6,73.6-79.3c22.4,0.2,84,29.3,89.7,52.3s-40,58-85.7,58.7
		S477.9,447.3,479.4,416.7z"/>
	<path class="merc8" d="M558.1,556.3c12.9-8,26.1-15.5,39.4-22.8s26.6-14.5,39.9-21.5l10-5.3l5-2.7l4.9-2.8c6.5-3.7,13-7.7,19.6-11.4
		c3.3-2,6.8-3.8,10.3-5.4c0.9-0.4,1.9-0.8,2.9-1c1.1-0.3,2.2-0.5,3.3-0.6c1.3-0.1,2.7,0.2,3.8,0.9c1.1,0.7,2,1.7,2.5,2.9
		c0.7,2.1,0.9,4.3,0.5,6.4c-0.3,1.9-0.8,3.9-1.4,5.7c-0.6,1.8-1.3,3.6-2.1,5.4l-1.2,2.6c-0.4,0.9-0.7,1.7-1,2.6
		c0.1-1,0.3-1.9,0.5-2.8l0.7-2.8c0.5-1.8,0.9-3.7,1.2-5.5c0.3-1.8,0.5-3.6,0.6-5.5c0.1-1.6-0.2-3.2-0.9-4.7
		c-0.6-1.1-1.8-1.6-2.9-1.3c-1.6,0.4-3.2,1-4.6,1.8c-3.1,1.7-6.3,3.8-9.4,5.9c-6.2,4.3-12.6,8.5-19,12.5s-13.2,7.7-19.9,11.3
		c-13.4,7.1-27,13.9-40.8,20.2C586.2,544.8,572.3,550.9,558.1,556.3z"/>
</g>
</svg>
