<?xml version="1.0" encoding="utf-8"?>
<!-- Generator: Adobe Illustrator 23.0.3, SVG Export Plug-In . SVG Version: 6.00 Build 0)  -->
<svg version="1.1" id="Calque_1" xmlns="http://www.w3.org/2000/svg" xmlns:xlink="http://www.w3.org/1999/xlink" x="0px" y="0px"
	 viewBox="0 0 948.5 948.5" style="enable-background:new 0 0 948.5 948.5;" xml:space="preserve">
<style type="text/css">
	.littleg1{fill:#FBDAA4;}
	.littleg2{opacity:0.1;enable-background:new    ;}
	.littleg3{fill:#F9E6CC;}
	.littleg4{opacity:0.1;fill:#804B3C;enable-background:new    ;}
	.littleg5{fill:#229433;}
	.littleg6{opacity:0.5;fill:#D5988C;enable-background:new    ;}
	.littleg7{fill:#3B0A0B;}
	.littleg8{fill:#D6D6D6;}
	.littleg9{fill:#999999;}
	.littleg10{fill:#384445;}
</style>
<g id="Calque_4">
	<path class="littleg1" d="M610.2,703.9c6-47.7-11-51.7-3-78.9l-8.3,1.1l0.3-137.5V359.9l-193.7-65l-193.7,57.6v136.1v137.5l-8-1
		c8,27.2-9,31.2-3,78.9c0,0,5.3-29.7,15.7-35c0,0-12.3,84.3,12.3,105.7c0,0,1.7-93.3,13.3-95.7c0,0-4.7,84,6,99.3
		c0,0,4.7-44,17.7-47c0,0-5.3,62.7,9,71c0,0,12.3-121,21.3-123.3c0,0-11.3,144,8,155.7c0,0,12.7-129,24-144.7c0,0,6,82.7,20.3,104.3
		c0,0,1.7-98.7,10-106.7c0,0,2.6,83.3,19,98.3c0,0-3.3-80,3.7-89.3c0,0,7,64.7,14.7,71.7c0,0,0.8-51,9.6-70h0.2
		c8.8,19,9.6,70,9.6,70c7.7-7,14.7-71.7,14.7-71.7c7,9.3,3.7,89.3,3.7,89.3c16.3-15,19-98.3,19-98.3c8.3,8,10,106.7,10,106.7
		c14.3-21.7,20.3-104.3,20.3-104.3c11.3,15.7,24,144.7,24,144.7c19.3-11.7,8-155.7,8-155.7c9,2.3,21.3,123.3,21.3,123.3
		c14.3-8.3,9-71,9-71c13,3,17.7,47,17.7,47c10.7-15.3,6-99.3,6-99.3c11.7,2.3,13.3,95.7,13.3,95.7c24.7-21.3,12.3-105.7,12.3-105.7
		C604.9,674.3,610.2,703.9,610.2,703.9z"/>
	<path class="littleg2" d="M610.2,703.9c6-47.7-11-51.7-3-78.9l-8.3,1.1l0.3-137.5V359.9l-193.7-65l-193.7,57.6v136.1v137.5l-8-1
		c8,27.2-9,31.2-3,78.9c0,0,5.3-29.7,15.7-35c0,0-12.3,84.3,12.3,105.7c0,0,1.7-93.3,13.3-95.7c0,0-4.7,84,6,99.3
		c0,0,4.7-44,17.7-47c0,0-5.3,62.7,9,71c0,0,12.3-121,21.3-123.3c0,0-11.3,144,8,155.7c0,0,12.7-129,24-144.7c0,0,6,82.7,20.3,104.3
		c0,0,1.7-98.7,10-106.7c0,0,2.6,83.3,19,98.3c0,0-3.3-80,3.7-89.3c0,0,7,64.7,14.7,71.7c0,0,0.8-51,9.6-70h0.2
		c8.8,19,9.6,70,9.6,70c7.7-7,14.7-71.7,14.7-71.7c7,9.3,3.7,89.3,3.7,89.3c16.3-15,19-98.3,19-98.3c8.3,8,10,106.7,10,106.7
		c14.3-21.7,20.3-104.3,20.3-104.3c11.3,15.7,24,144.7,24,144.7c19.3-11.7,8-155.7,8-155.7c9,2.3,21.3,123.3,21.3,123.3
		c14.3-8.3,9-71,9-71c13,3,17.7,47,17.7,47c10.7-15.3,6-99.3,6-99.3c11.7,2.3,13.3,95.7,13.3,95.7c24.7-21.3,12.3-105.7,12.3-105.7
		C604.9,674.3,610.2,703.9,610.2,703.9z"/>
	<path class="littleg2" d="M211.9,352.5v136.1v137.5l-8-1c8,27.2-9,31.2-3,78.9c0,0,5.3-29.7,15.7-35c0,0-12.3,84.3,12.3,105.7
		c0,0,1.7-93.3,13.3-95.7c0,0-4.7,84,6,99.3c0,0,4.7-44,17.7-47c0,0-5.3,62.7,9,71c0,0,12.3-121,21.3-123.3c0,0-11.3,144,8,155.7
		c0,0,12.7-129,24-144.7c0,0,6,82.7,20.3,104.3c0,0,1.7-98.7,10-106.7c0,0,2.6,83.3,19,98.3c0,0-3.3-80,3.7-89.3
		c0,0,7,64.7,14.7,71.7c0,0,0.8-51,9.6-70l0.1-403.3L211.9,352.5z"/>
	<path class="littleg3" d="M404.9,138.6L404.9,138.6c-103.6,0-188.3,84.7-188.3,188.3v44c0,103.6,84.7,188.3,188.3,188.3l0,0
		c103.6,0,188.3-84.7,188.3-188.3v-44C593.2,223.3,508.5,138.6,404.9,138.6z"/>
	<path class="littleg4" d="M404.9,236c0,9.3,19.4,28,37.2,32c17.8,4,134.3,56.6,149.7,80.9c0.4,0.7,0.9,1.3,1.4,1.9v-23.9
		c0-103.6-84.7-188.3-188.3-188.3l0,0c-103.6,0-188.3,84.7-188.3,188.3v44c0,103.6,84.7,188.3,188.3,188.3l0,0L404.9,236L404.9,236z
		"/>
	<path class="littleg1" d="M674.7,467.9c0-38.7-71.9-93.2-70.9-133.8c0,0-0.1,0.6-0.4,1.6l1.1-41.9c0,0,4.5-179.9-198.9-180l0,0h-0.1
		h-0.1l0,0c-203.4,0.1-198.9,180-198.9,180l1.1,41.2c-0.1-0.6-0.2-0.9-0.2-0.9c1,40.5-70.9,95.1-70.9,133.8s70,51.9,61.3,95
		s-35.3,104.5-6.7,161.1c0,0,0-61.7,28-106.9s-7.5-128.9-4.9-185.7l0,0c1-21.9,2.2-48,3.5-74.1C221.2,292,401.3,254.8,405.5,207
		c4.2,47.8,184.4,85.1,187.7,150.3c1.4,28.6,2.8,57,3.8,80.1c0.1,56.6-32,136.1-5,179.7c28,45.2,28,106.9,28,106.9
		c28.7-56.6,2-118.1-6.7-161.1S674.7,506.6,674.7,467.9z"/>
	<path class="littleg2" d="M405.6,113.9L405.6,113.9c-0.1,0-0.1,0-0.1,0l0,0c-203.4,0.1-198.9,180-198.9,180l1.1,41.2
		c-0.1-0.6-0.2-0.9-0.2-0.9c1,40.5-70.9,95.1-70.9,133.8s70,51.9,61.3,95s-35.3,104.5-6.7,161.1c0,0,0-61.7,28-106.9
		s-7.5-128.9-4.9-185.7l0,0c1-21.9,2.2-48,3.5-74.1C221.2,292,401.3,254.8,405.5,207c0,0.2,0,0.4,0.1,0.6V113.9z"/>
	<path class="littleg2" d="M201.2,526.3c-1.3-32.7,1.7-49,0-65.8s-53.2,1.5-64.5,7.7c-0.1,0-0.1,0.1-0.2,0.1c0.4,38.4,70,51.7,61.3,94.6
		c-0.6,3.1-1.3,6.3-2.1,9.5l0,0C195.7,572.5,202.6,559,201.2,526.3z"/>
	<path class="littleg2" d="M609.9,526.3c1.3-32.7-1.7-49,0-65.8s53.2,1.5,64.5,7.7c0.1,0,0.1,0.1,0.2,0.1c-0.4,38.4-70,51.7-61.3,94.6
		c0.6,3.1,1.3,6.3,2.1,9.5l0,0C615.5,572.5,608.6,559,609.9,526.3z"/>
	<g id="E1">
		<circle class="littleg5" cx="468.5" cy="352.9" r="26.5"/>
		<circle class="littleg5" cx="342.7" cy="352.9" r="26.5"/>
	</g>
	<path class="littleg6" d="M404.5,336.2l-20.6,98.1c-2.7,13.1,7.2,25.4,20.6,25.4l0,0l0,0c13.4,0,23.4-12.3,20.6-25.4L404.5,336.2z"/>
</g>
<g id="Calque_5">
	<polygon class="littleg7" points="513.6,446.2 627.6,402.2 714.6,524.2 587.7,559.3 	"/>
	<g>
		<path class="littleg8" d="M509.6,584.1l-32.3,9.7L487,556l-38.7-9.9l13.2-26.4l-21.3-0.2l7.9-31.1l-25.2-6.4l16.3-28.9l-8.1-13.2
			l35.4-16.2c0,0,13-148.4,25.9-157c0,0,32.5,288.5,32,290.4C524,558.9,509.6,584.1,509.6,584.1z"/>
		<path class="littleg8" d="M644.3,618.5l23.7,24l9.6-37.8l38.7,9.9l1.1-29.5l18.8,10l7.9-31.1l25.2,6.4l-0.5-33.2l13.4-7.7l-23.4-31.2
			c0,0,59.7-136.5,52.5-150.2c0,0-166.7,237.7-167.2,239.6C643.8,589.5,644.3,618.5,644.3,618.5z"/>
		<path class="littleg9" d="M751.7,543l29,2.4l-19.2-31l21.5-5.9l-26.4-30.7c0,0-4.1-9.8-2.5-28.6c1.6-18.9,57.4-101.2,57.4-101.2
			c-19.2-12.8-96.1,20.1-96.1,20.1l-3.5-19.8l-13.2,15.5l-7.9-23.4l-19.1,13.3l-9.7-23.5l-19.8,16l-9.7-23.5l-19.8,16l-10.4-20.8
			L584,334.7l-4.2-20l-12.6,15.7c0,0-51.8-65.7-74.7-63.7c0,0,9.5,99,1.9,116.3s-15.9,24-15.9,24l-37.9,14.2l16,15.5l-31.7,18
			l26.6,11.8l-12.1,30.8l28.1,3.2l-13.2,26.6l28,3.6l-11.1,32.5l39.9-5.2c0,0-12.8,58.5-12.9,79.9s2.3,47,54.2,60.2l0,0
			c51.9,13.3,66.3-8.1,76.4-26.9c10.2-18.8,27-76.3,27-76.3l32.5,23.6l5.8-33.9l26.3,10.3l1.2-29.7l26.2,10.6L751.7,543z
			 M559.8,493.5c-14.9-3.8-23.9-19-20.1-33.9c3.8-14.9,19-23.9,33.9-20.1s23.9,19,20.1,33.9C589.9,488.3,574.7,497.3,559.8,493.5z
			 M643.7,514.9c-14.9-3.8-23.9-19-20.1-33.9c3.8-14.9,19-23.9,33.9-20.1s23.9,19,20.1,33.9S658.6,518.7,643.7,514.9z"/>
		<path class="littleg10" d="M572.7,619.1l-0.5,2.1v-2.3c-17.8-4.5-52.1-21.2-55.1,7.8c-2.9,29.1,42.2,42.5,42.2,42.5l0.9-1.2l-0.4,1.4
			c0,0,46.1,9.9,57.4-17C628.7,625.4,590.5,623.6,572.7,619.1z"/>
		<path class="littleg2" d="M642,346.3l-9.7-23.5l-19.8,16L602.1,318L584,334.7l-4.2-20l-12.6,15.7c0,0-51.8-65.7-74.7-63.7
			c-10.5,7-21.2,108.1-24.7,144.2l-27.2,10.2l10.1,9.8l-19.5,8.9l5.1,8.3l-11.4,6.4l10.7,4.8L422.9,482l20.4,5.2l-4,10.1l6.3,0.7
			l-5.5,21.5l17.8,0.2l-3.7,7.5l3.3,0.4l-9.3,18.6l26.4,6.7l-3.5,10.3l14.5-1.9l-8.3,32.5l28.1-8.4c-3.5,18.2-7.3,40.8-7.3,52.5
			c-0.1,21.4,2.3,47,54.2,60.2l0,0L642,346.3z M559.8,493.5c-14.9-3.8-23.9-19-20.1-33.9c3.8-14.9,19-23.9,33.9-20.1
			s23.9,19,20.1,33.9C589.9,488.3,574.7,497.3,559.8,493.5z"/>
	</g>
</g>
<g id="Calque_7">
	<path class="littleg3" d="M620.1,733.6l-41.8-16.1c-17.2-6.6-25.9-26.2-19.3-43.4l12.4-32.3c6.6-17.2,26.2-25.9,43.4-19.3l41.8,16.1
		c17.2,6.6,25.9,26.2,19.3,43.4l-12.4,32.3C656.9,731.6,637.3,740.3,620.1,733.6z"/>
	<path class="littleg4" d="M669,647.3c0.9,5.6,0.3,11.5-1.8,17.1l-12.4,32.3c-6.6,17.2-26.2,25.9-43.4,19.3l-41.8-16.1
		c-4.9-1.9-9.2-4.9-12.5-8.5c1.8,11.5,9.5,21.9,21.1,26.3l41.8,16.1c17.2,6.6,36.8-2,43.4-19.3l12.4-32.3
		C680.5,669.9,677.4,656.4,669,647.3z"/>
</g>
</svg>
