<svg width="589" height="556" viewBox="0 0 589 556" fill="none" xmlns="http://www.w3.org/2000/svg">
<g filter="url(#filter0_dd_28_10)">
<mask id="path-1-outside-1_28_10" maskUnits="userSpaceOnUse" x="4" y="0" width="581" height="548" fill="black">
<rect fill="white" x="4" width="581" height="548"/>
<path d="M550 274C550 405.996 435.609 513 294.5 513C153.391 513 39 405.996 39 274C39 142.004 153.391 35 294.5 35C435.609 35 550 142.004 550 274Z"/>
<path d="M149.28 305.029C142.812 305.029 137.471 303.804 133.257 301.354C129.043 298.904 125.907 295.572 123.849 291.358C121.791 287.144 120.762 282.391 120.762 277.099V261.517C120.762 256.225 121.742 251.472 123.702 247.258C125.76 243.044 128.896 239.712 133.11 237.262C137.422 234.812 142.812 233.587 149.28 233.587C153.396 233.587 156.973 234.126 160.011 235.204C163.147 236.184 165.548 237.409 167.214 238.879C168.978 240.349 169.86 241.77 169.86 243.142C169.86 243.828 169.664 244.563 169.272 245.347C168.978 246.033 168.488 246.621 167.802 247.111C167.214 247.601 166.528 247.846 165.744 247.846C164.862 247.846 163.833 247.405 162.657 246.523C161.579 245.543 160.06 244.612 158.1 243.73C156.14 242.848 153.347 242.407 149.721 242.407C143.351 242.407 138.5 244.122 135.168 247.552C131.934 250.884 130.317 255.539 130.317 261.517V277.099C130.317 283.077 131.934 287.781 135.168 291.211C138.5 294.543 143.4 296.209 149.868 296.209C153.592 296.209 156.483 295.768 158.541 294.886C160.599 293.906 162.167 292.975 163.245 292.093C164.421 291.113 165.499 290.623 166.479 290.623C167.361 290.623 168.096 290.868 168.684 291.358C169.37 291.848 169.86 292.436 170.154 293.122C170.546 293.808 170.742 294.543 170.742 295.327C170.742 296.601 169.86 298.022 168.096 299.59C166.332 301.06 163.833 302.334 160.599 303.412C157.463 304.49 153.69 305.029 149.28 305.029Z"/>
<path d="M208.117 305.029C203.119 305.029 198.513 303.755 194.299 301.207C190.085 298.561 186.655 295.131 184.009 290.917C181.461 286.605 180.187 281.999 180.187 277.099V261.223C180.187 256.225 181.412 251.668 183.862 247.552C186.41 243.338 189.791 239.957 194.005 237.409C198.317 234.861 203.021 233.587 208.117 233.587C213.115 233.587 217.721 234.861 221.935 237.409C226.247 239.859 229.677 243.142 232.225 247.258C234.773 251.374 236.047 256.029 236.047 261.223V277.099C236.047 281.901 234.773 286.458 232.225 290.77C229.677 295.082 226.247 298.561 221.935 301.207C217.721 303.755 213.115 305.029 208.117 305.029ZM208.117 296.209C211.547 296.209 214.634 295.327 217.378 293.563C220.122 291.701 222.327 289.3 223.993 286.36C225.659 283.42 226.492 280.333 226.492 277.099V261.223C226.492 257.989 225.659 254.951 223.993 252.109C222.425 249.267 220.22 246.964 217.378 245.2C214.634 243.338 211.547 242.407 208.117 242.407C204.687 242.407 201.6 243.338 198.856 245.2C196.112 246.964 193.907 249.267 192.241 252.109C190.575 254.951 189.742 257.989 189.742 261.223V277.099C189.742 280.333 190.575 283.42 192.241 286.36C193.907 289.3 196.112 291.701 198.856 293.563C201.698 295.327 204.785 296.209 208.117 296.209Z"/>
<path d="M256.59 338.104C255.316 338.104 254.189 337.712 253.209 336.928C252.327 336.144 251.886 335.262 251.886 334.282V238.144C251.886 236.968 252.327 236.086 253.209 235.498C254.189 234.812 255.316 234.469 256.59 234.469C257.864 234.469 258.942 234.812 259.824 235.498C260.706 236.086 261.147 236.968 261.147 238.144V244.759C262.813 241.917 265.312 239.369 268.644 237.115C271.976 234.763 276.043 233.587 280.845 233.587C285.745 233.587 290.155 234.861 294.075 237.409C298.093 239.859 301.278 243.191 303.63 247.405C306.08 251.521 307.305 256.127 307.305 261.223V277.099C307.305 281.901 306.08 286.458 303.63 290.77C301.278 295.082 298.142 298.561 294.222 301.207C290.302 303.755 285.99 305.029 281.286 305.029C276.778 305.029 272.76 303.902 269.232 301.648C265.704 299.394 263.107 296.748 261.441 293.71V334.282C261.441 335.262 260.951 336.144 259.971 336.928C259.089 337.712 257.962 338.104 256.59 338.104ZM279.522 296.209C282.756 296.209 285.745 295.327 288.489 293.563C291.233 291.701 293.438 289.3 295.104 286.36C296.868 283.42 297.75 280.333 297.75 277.099V261.223C297.75 257.989 296.868 254.951 295.104 252.109C293.438 249.267 291.233 246.964 288.489 245.2C285.745 243.338 282.658 242.407 279.228 242.407C276.288 242.407 273.446 243.191 270.702 244.759C268.056 246.229 265.851 248.336 264.087 251.08C262.323 253.824 261.441 257.205 261.441 261.223V281.656C261.441 283.126 262.225 285.037 263.793 287.389C265.361 289.643 267.517 291.701 270.261 293.563C273.005 295.327 276.092 296.209 279.522 296.209Z"/>
<path d="M327.793 213.889C326.029 213.889 324.461 213.301 323.089 212.125C321.815 210.851 321.178 209.381 321.178 207.715C321.178 206.049 321.815 204.628 323.089 203.452C324.461 202.276 326.029 201.688 327.793 201.688C329.557 201.688 331.076 202.276 332.35 203.452C333.624 204.628 334.261 206.049 334.261 207.715C334.261 209.381 333.624 210.851 332.35 212.125C331.076 213.301 329.557 213.889 327.793 213.889ZM327.646 304C326.372 304 325.245 303.608 324.265 302.824C323.383 302.04 322.942 301.158 322.942 300.178V238.144C322.942 236.968 323.383 236.086 324.265 235.498C325.245 234.812 326.372 234.469 327.646 234.469C329.018 234.469 330.145 234.812 331.027 235.498C332.007 236.086 332.497 236.968 332.497 238.144V300.178C332.497 301.158 332.007 302.04 331.027 302.824C330.145 303.608 329.018 304 327.646 304Z"/>
<path d="M379.898 305.029C373.724 305.029 368.236 303.853 363.434 301.501C358.73 299.149 355.006 295.915 352.262 291.799C349.616 287.585 348.293 282.685 348.293 277.099V260.782C348.293 255.882 349.567 251.374 352.115 247.258C354.663 243.044 358.044 239.712 362.258 237.262C366.57 234.812 371.274 233.587 376.37 233.587C381.27 233.587 385.778 234.763 389.894 237.115C394.108 239.369 397.489 242.505 400.037 246.523C402.585 250.541 403.859 255.196 403.859 260.488C403.859 264.212 403.222 266.907 401.948 268.573C400.674 270.239 399.057 271.268 397.097 271.66C395.235 271.954 393.226 272.101 391.07 272.101H357.848V277.54C357.848 283.42 359.955 288.075 364.169 291.505C368.383 294.935 373.724 296.65 380.192 296.65C384.112 296.65 387.15 296.16 389.306 295.18C391.462 294.2 393.128 293.22 394.304 292.24C395.578 291.26 396.754 290.77 397.832 290.77C398.616 290.77 399.302 291.064 399.89 291.652C400.576 292.142 401.066 292.73 401.36 293.416C401.752 294.102 401.948 294.739 401.948 295.327C401.948 296.405 401.066 297.728 399.302 299.296C397.538 300.864 394.99 302.236 391.658 303.412C388.326 304.49 384.406 305.029 379.898 305.029ZM357.848 265.045H387.248C390.188 265.045 392.148 264.751 393.128 264.163C394.108 263.477 394.598 262.105 394.598 260.047C394.598 256.911 393.814 253.971 392.246 251.227C390.678 248.385 388.522 246.082 385.778 244.318C383.034 242.456 379.849 241.525 376.223 241.525C372.891 241.525 369.804 242.358 366.962 244.024C364.218 245.69 362.013 247.846 360.347 250.492C358.681 253.138 357.848 256.127 357.848 259.459V265.045Z"/>
<path d="M422.823 304C421.549 304 420.422 303.608 419.442 302.824C418.56 302.04 418.119 301.158 418.119 300.178V238.144C418.119 236.968 418.56 236.086 419.442 235.498C420.422 234.812 421.549 234.469 422.823 234.469C424.097 234.469 425.175 234.812 426.057 235.498C426.939 236.086 427.38 236.968 427.38 238.144V245.347C428.458 243.289 429.928 241.378 431.79 239.614C433.652 237.85 435.857 236.429 438.405 235.351C440.953 234.175 443.844 233.587 447.078 233.587H452.223C453.301 233.587 454.183 234.028 454.869 234.91C455.653 235.792 456.045 236.821 456.045 237.997C456.045 239.271 455.653 240.349 454.869 241.231C454.183 242.015 453.301 242.407 452.223 242.407H447.078C443.844 242.407 440.708 243.289 437.67 245.053C434.73 246.817 432.329 249.267 430.467 252.403C428.605 255.539 427.674 259.361 427.674 263.869V300.178C427.674 301.158 427.184 302.04 426.204 302.824C425.322 303.608 424.195 304 422.823 304Z"/>
</mask>
<path d="M550 274C550 405.996 435.609 513 294.5 513C153.391 513 39 405.996 39 274C39 142.004 153.391 35 294.5 35C435.609 35 550 142.004 550 274Z" fill="#0F0E4A"/>
<path d="M149.28 305.029C142.812 305.029 137.471 303.804 133.257 301.354C129.043 298.904 125.907 295.572 123.849 291.358C121.791 287.144 120.762 282.391 120.762 277.099V261.517C120.762 256.225 121.742 251.472 123.702 247.258C125.76 243.044 128.896 239.712 133.11 237.262C137.422 234.812 142.812 233.587 149.28 233.587C153.396 233.587 156.973 234.126 160.011 235.204C163.147 236.184 165.548 237.409 167.214 238.879C168.978 240.349 169.86 241.77 169.86 243.142C169.86 243.828 169.664 244.563 169.272 245.347C168.978 246.033 168.488 246.621 167.802 247.111C167.214 247.601 166.528 247.846 165.744 247.846C164.862 247.846 163.833 247.405 162.657 246.523C161.579 245.543 160.06 244.612 158.1 243.73C156.14 242.848 153.347 242.407 149.721 242.407C143.351 242.407 138.5 244.122 135.168 247.552C131.934 250.884 130.317 255.539 130.317 261.517V277.099C130.317 283.077 131.934 287.781 135.168 291.211C138.5 294.543 143.4 296.209 149.868 296.209C153.592 296.209 156.483 295.768 158.541 294.886C160.599 293.906 162.167 292.975 163.245 292.093C164.421 291.113 165.499 290.623 166.479 290.623C167.361 290.623 168.096 290.868 168.684 291.358C169.37 291.848 169.86 292.436 170.154 293.122C170.546 293.808 170.742 294.543 170.742 295.327C170.742 296.601 169.86 298.022 168.096 299.59C166.332 301.06 163.833 302.334 160.599 303.412C157.463 304.49 153.69 305.029 149.28 305.029Z" fill="white"/>
<path d="M208.117 305.029C203.119 305.029 198.513 303.755 194.299 301.207C190.085 298.561 186.655 295.131 184.009 290.917C181.461 286.605 180.187 281.999 180.187 277.099V261.223C180.187 256.225 181.412 251.668 183.862 247.552C186.41 243.338 189.791 239.957 194.005 237.409C198.317 234.861 203.021 233.587 208.117 233.587C213.115 233.587 217.721 234.861 221.935 237.409C226.247 239.859 229.677 243.142 232.225 247.258C234.773 251.374 236.047 256.029 236.047 261.223V277.099C236.047 281.901 234.773 286.458 232.225 290.77C229.677 295.082 226.247 298.561 221.935 301.207C217.721 303.755 213.115 305.029 208.117 305.029ZM208.117 296.209C211.547 296.209 214.634 295.327 217.378 293.563C220.122 291.701 222.327 289.3 223.993 286.36C225.659 283.42 226.492 280.333 226.492 277.099V261.223C226.492 257.989 225.659 254.951 223.993 252.109C222.425 249.267 220.22 246.964 217.378 245.2C214.634 243.338 211.547 242.407 208.117 242.407C204.687 242.407 201.6 243.338 198.856 245.2C196.112 246.964 193.907 249.267 192.241 252.109C190.575 254.951 189.742 257.989 189.742 261.223V277.099C189.742 280.333 190.575 283.42 192.241 286.36C193.907 289.3 196.112 291.701 198.856 293.563C201.698 295.327 204.785 296.209 208.117 296.209Z" fill="white"/>
<path d="M256.59 338.104C255.316 338.104 254.189 337.712 253.209 336.928C252.327 336.144 251.886 335.262 251.886 334.282V238.144C251.886 236.968 252.327 236.086 253.209 235.498C254.189 234.812 255.316 234.469 256.59 234.469C257.864 234.469 258.942 234.812 259.824 235.498C260.706 236.086 261.147 236.968 261.147 238.144V244.759C262.813 241.917 265.312 239.369 268.644 237.115C271.976 234.763 276.043 233.587 280.845 233.587C285.745 233.587 290.155 234.861 294.075 237.409C298.093 239.859 301.278 243.191 303.63 247.405C306.08 251.521 307.305 256.127 307.305 261.223V277.099C307.305 281.901 306.08 286.458 303.63 290.77C301.278 295.082 298.142 298.561 294.222 301.207C290.302 303.755 285.99 305.029 281.286 305.029C276.778 305.029 272.76 303.902 269.232 301.648C265.704 299.394 263.107 296.748 261.441 293.71V334.282C261.441 335.262 260.951 336.144 259.971 336.928C259.089 337.712 257.962 338.104 256.59 338.104ZM279.522 296.209C282.756 296.209 285.745 295.327 288.489 293.563C291.233 291.701 293.438 289.3 295.104 286.36C296.868 283.42 297.75 280.333 297.75 277.099V261.223C297.75 257.989 296.868 254.951 295.104 252.109C293.438 249.267 291.233 246.964 288.489 245.2C285.745 243.338 282.658 242.407 279.228 242.407C276.288 242.407 273.446 243.191 270.702 244.759C268.056 246.229 265.851 248.336 264.087 251.08C262.323 253.824 261.441 257.205 261.441 261.223V281.656C261.441 283.126 262.225 285.037 263.793 287.389C265.361 289.643 267.517 291.701 270.261 293.563C273.005 295.327 276.092 296.209 279.522 296.209Z" fill="white"/>
<path d="M327.793 213.889C326.029 213.889 324.461 213.301 323.089 212.125C321.815 210.851 321.178 209.381 321.178 207.715C321.178 206.049 321.815 204.628 323.089 203.452C324.461 202.276 326.029 201.688 327.793 201.688C329.557 201.688 331.076 202.276 332.35 203.452C333.624 204.628 334.261 206.049 334.261 207.715C334.261 209.381 333.624 210.851 332.35 212.125C331.076 213.301 329.557 213.889 327.793 213.889ZM327.646 304C326.372 304 325.245 303.608 324.265 302.824C323.383 302.04 322.942 301.158 322.942 300.178V238.144C322.942 236.968 323.383 236.086 324.265 235.498C325.245 234.812 326.372 234.469 327.646 234.469C329.018 234.469 330.145 234.812 331.027 235.498C332.007 236.086 332.497 236.968 332.497 238.144V300.178C332.497 301.158 332.007 302.04 331.027 302.824C330.145 303.608 329.018 304 327.646 304Z" fill="white"/>
<path d="M379.898 305.029C373.724 305.029 368.236 303.853 363.434 301.501C358.73 299.149 355.006 295.915 352.262 291.799C349.616 287.585 348.293 282.685 348.293 277.099V260.782C348.293 255.882 349.567 251.374 352.115 247.258C354.663 243.044 358.044 239.712 362.258 237.262C366.57 234.812 371.274 233.587 376.37 233.587C381.27 233.587 385.778 234.763 389.894 237.115C394.108 239.369 397.489 242.505 400.037 246.523C402.585 250.541 403.859 255.196 403.859 260.488C403.859 264.212 403.222 266.907 401.948 268.573C400.674 270.239 399.057 271.268 397.097 271.66C395.235 271.954 393.226 272.101 391.07 272.101H357.848V277.54C357.848 283.42 359.955 288.075 364.169 291.505C368.383 294.935 373.724 296.65 380.192 296.65C384.112 296.65 387.15 296.16 389.306 295.18C391.462 294.2 393.128 293.22 394.304 292.24C395.578 291.26 396.754 290.77 397.832 290.77C398.616 290.77 399.302 291.064 399.89 291.652C400.576 292.142 401.066 292.73 401.36 293.416C401.752 294.102 401.948 294.739 401.948 295.327C401.948 296.405 401.066 297.728 399.302 299.296C397.538 300.864 394.99 302.236 391.658 303.412C388.326 304.49 384.406 305.029 379.898 305.029ZM357.848 265.045H387.248C390.188 265.045 392.148 264.751 393.128 264.163C394.108 263.477 394.598 262.105 394.598 260.047C394.598 256.911 393.814 253.971 392.246 251.227C390.678 248.385 388.522 246.082 385.778 244.318C383.034 242.456 379.849 241.525 376.223 241.525C372.891 241.525 369.804 242.358 366.962 244.024C364.218 245.69 362.013 247.846 360.347 250.492C358.681 253.138 357.848 256.127 357.848 259.459V265.045Z" fill="white"/>
<path d="M422.823 304C421.549 304 420.422 303.608 419.442 302.824C418.56 302.04 418.119 301.158 418.119 300.178V238.144C418.119 236.968 418.56 236.086 419.442 235.498C420.422 234.812 421.549 234.469 422.823 234.469C424.097 234.469 425.175 234.812 426.057 235.498C426.939 236.086 427.38 236.968 427.38 238.144V245.347C428.458 243.289 429.928 241.378 431.79 239.614C433.652 237.85 435.857 236.429 438.405 235.351C440.953 234.175 443.844 233.587 447.078 233.587H452.223C453.301 233.587 454.183 234.028 454.869 234.91C455.653 235.792 456.045 236.821 456.045 237.997C456.045 239.271 455.653 240.349 454.869 241.231C454.183 242.015 453.301 242.407 452.223 242.407H447.078C443.844 242.407 440.708 243.289 437.67 245.053C434.73 246.817 432.329 249.267 430.467 252.403C428.605 255.539 427.674 259.361 427.674 263.869V300.178C427.674 301.158 427.184 302.04 426.204 302.824C425.322 303.608 424.195 304 422.823 304Z" fill="white"/>
<path d="M550 274C550 405.996 435.609 513 294.5 513C153.391 513 39 405.996 39 274C39 142.004 153.391 35 294.5 35C435.609 35 550 142.004 550 274Z" stroke="white" stroke-width="70" mask="url(#path-1-outside-1_28_10)"/>
<path d="M149.28 305.029C142.812 305.029 137.471 303.804 133.257 301.354C129.043 298.904 125.907 295.572 123.849 291.358C121.791 287.144 120.762 282.391 120.762 277.099V261.517C120.762 256.225 121.742 251.472 123.702 247.258C125.76 243.044 128.896 239.712 133.11 237.262C137.422 234.812 142.812 233.587 149.28 233.587C153.396 233.587 156.973 234.126 160.011 235.204C163.147 236.184 165.548 237.409 167.214 238.879C168.978 240.349 169.86 241.77 169.86 243.142C169.86 243.828 169.664 244.563 169.272 245.347C168.978 246.033 168.488 246.621 167.802 247.111C167.214 247.601 166.528 247.846 165.744 247.846C164.862 247.846 163.833 247.405 162.657 246.523C161.579 245.543 160.06 244.612 158.1 243.73C156.14 242.848 153.347 242.407 149.721 242.407C143.351 242.407 138.5 244.122 135.168 247.552C131.934 250.884 130.317 255.539 130.317 261.517V277.099C130.317 283.077 131.934 287.781 135.168 291.211C138.5 294.543 143.4 296.209 149.868 296.209C153.592 296.209 156.483 295.768 158.541 294.886C160.599 293.906 162.167 292.975 163.245 292.093C164.421 291.113 165.499 290.623 166.479 290.623C167.361 290.623 168.096 290.868 168.684 291.358C169.37 291.848 169.86 292.436 170.154 293.122C170.546 293.808 170.742 294.543 170.742 295.327C170.742 296.601 169.86 298.022 168.096 299.59C166.332 301.06 163.833 302.334 160.599 303.412C157.463 304.49 153.69 305.029 149.28 305.029Z" stroke="white" stroke-width="70" mask="url(#path-1-outside-1_28_10)"/>
<path d="M208.117 305.029C203.119 305.029 198.513 303.755 194.299 301.207C190.085 298.561 186.655 295.131 184.009 290.917C181.461 286.605 180.187 281.999 180.187 277.099V261.223C180.187 256.225 181.412 251.668 183.862 247.552C186.41 243.338 189.791 239.957 194.005 237.409C198.317 234.861 203.021 233.587 208.117 233.587C213.115 233.587 217.721 234.861 221.935 237.409C226.247 239.859 229.677 243.142 232.225 247.258C234.773 251.374 236.047 256.029 236.047 261.223V277.099C236.047 281.901 234.773 286.458 232.225 290.77C229.677 295.082 226.247 298.561 221.935 301.207C217.721 303.755 213.115 305.029 208.117 305.029ZM208.117 296.209C211.547 296.209 214.634 295.327 217.378 293.563C220.122 291.701 222.327 289.3 223.993 286.36C225.659 283.42 226.492 280.333 226.492 277.099V261.223C226.492 257.989 225.659 254.951 223.993 252.109C222.425 249.267 220.22 246.964 217.378 245.2C214.634 243.338 211.547 242.407 208.117 242.407C204.687 242.407 201.6 243.338 198.856 245.2C196.112 246.964 193.907 249.267 192.241 252.109C190.575 254.951 189.742 257.989 189.742 261.223V277.099C189.742 280.333 190.575 283.42 192.241 286.36C193.907 289.3 196.112 291.701 198.856 293.563C201.698 295.327 204.785 296.209 208.117 296.209Z" stroke="white" stroke-width="70" mask="url(#path-1-outside-1_28_10)"/>
<path d="M256.59 338.104C255.316 338.104 254.189 337.712 253.209 336.928C252.327 336.144 251.886 335.262 251.886 334.282V238.144C251.886 236.968 252.327 236.086 253.209 235.498C254.189 234.812 255.316 234.469 256.59 234.469C257.864 234.469 258.942 234.812 259.824 235.498C260.706 236.086 261.147 236.968 261.147 238.144V244.759C262.813 241.917 265.312 239.369 268.644 237.115C271.976 234.763 276.043 233.587 280.845 233.587C285.745 233.587 290.155 234.861 294.075 237.409C298.093 239.859 301.278 243.191 303.63 247.405C306.08 251.521 307.305 256.127 307.305 261.223V277.099C307.305 281.901 306.08 286.458 303.63 290.77C301.278 295.082 298.142 298.561 294.222 301.207C290.302 303.755 285.99 305.029 281.286 305.029C276.778 305.029 272.76 303.902 269.232 301.648C265.704 299.394 263.107 296.748 261.441 293.71V334.282C261.441 335.262 260.951 336.144 259.971 336.928C259.089 337.712 257.962 338.104 256.59 338.104ZM279.522 296.209C282.756 296.209 285.745 295.327 288.489 293.563C291.233 291.701 293.438 289.3 295.104 286.36C296.868 283.42 297.75 280.333 297.75 277.099V261.223C297.75 257.989 296.868 254.951 295.104 252.109C293.438 249.267 291.233 246.964 288.489 245.2C285.745 243.338 282.658 242.407 279.228 242.407C276.288 242.407 273.446 243.191 270.702 244.759C268.056 246.229 265.851 248.336 264.087 251.08C262.323 253.824 261.441 257.205 261.441 261.223V281.656C261.441 283.126 262.225 285.037 263.793 287.389C265.361 289.643 267.517 291.701 270.261 293.563C273.005 295.327 276.092 296.209 279.522 296.209Z" stroke="white" stroke-width="70" mask="url(#path-1-outside-1_28_10)"/>
<path d="M327.793 213.889C326.029 213.889 324.461 213.301 323.089 212.125C321.815 210.851 321.178 209.381 321.178 207.715C321.178 206.049 321.815 204.628 323.089 203.452C324.461 202.276 326.029 201.688 327.793 201.688C329.557 201.688 331.076 202.276 332.35 203.452C333.624 204.628 334.261 206.049 334.261 207.715C334.261 209.381 333.624 210.851 332.35 212.125C331.076 213.301 329.557 213.889 327.793 213.889ZM327.646 304C326.372 304 325.245 303.608 324.265 302.824C323.383 302.04 322.942 301.158 322.942 300.178V238.144C322.942 236.968 323.383 236.086 324.265 235.498C325.245 234.812 326.372 234.469 327.646 234.469C329.018 234.469 330.145 234.812 331.027 235.498C332.007 236.086 332.497 236.968 332.497 238.144V300.178C332.497 301.158 332.007 302.04 331.027 302.824C330.145 303.608 329.018 304 327.646 304Z" stroke="white" stroke-width="70" mask="url(#path-1-outside-1_28_10)"/>
<path d="M379.898 305.029C373.724 305.029 368.236 303.853 363.434 301.501C358.73 299.149 355.006 295.915 352.262 291.799C349.616 287.585 348.293 282.685 348.293 277.099V260.782C348.293 255.882 349.567 251.374 352.115 247.258C354.663 243.044 358.044 239.712 362.258 237.262C366.57 234.812 371.274 233.587 376.37 233.587C381.27 233.587 385.778 234.763 389.894 237.115C394.108 239.369 397.489 242.505 400.037 246.523C402.585 250.541 403.859 255.196 403.859 260.488C403.859 264.212 403.222 266.907 401.948 268.573C400.674 270.239 399.057 271.268 397.097 271.66C395.235 271.954 393.226 272.101 391.07 272.101H357.848V277.54C357.848 283.42 359.955 288.075 364.169 291.505C368.383 294.935 373.724 296.65 380.192 296.65C384.112 296.65 387.15 296.16 389.306 295.18C391.462 294.2 393.128 293.22 394.304 292.24C395.578 291.26 396.754 290.77 397.832 290.77C398.616 290.77 399.302 291.064 399.89 291.652C400.576 292.142 401.066 292.73 401.36 293.416C401.752 294.102 401.948 294.739 401.948 295.327C401.948 296.405 401.066 297.728 399.302 299.296C397.538 300.864 394.99 302.236 391.658 303.412C388.326 304.49 384.406 305.029 379.898 305.029ZM357.848 265.045H387.248C390.188 265.045 392.148 264.751 393.128 264.163C394.108 263.477 394.598 262.105 394.598 260.047C394.598 256.911 393.814 253.971 392.246 251.227C390.678 248.385 388.522 246.082 385.778 244.318C383.034 242.456 379.849 241.525 376.223 241.525C372.891 241.525 369.804 242.358 366.962 244.024C364.218 245.69 362.013 247.846 360.347 250.492C358.681 253.138 357.848 256.127 357.848 259.459V265.045Z" stroke="white" stroke-width="70" mask="url(#path-1-outside-1_28_10)"/>
<path d="M422.823 304C421.549 304 420.422 303.608 419.442 302.824C418.56 302.04 418.119 301.158 418.119 300.178V238.144C418.119 236.968 418.56 236.086 419.442 235.498C420.422 234.812 421.549 234.469 422.823 234.469C424.097 234.469 425.175 234.812 426.057 235.498C426.939 236.086 427.38 236.968 427.38 238.144V245.347C428.458 243.289 429.928 241.378 431.79 239.614C433.652 237.85 435.857 236.429 438.405 235.351C440.953 234.175 443.844 233.587 447.078 233.587H452.223C453.301 233.587 454.183 234.028 454.869 234.91C455.653 235.792 456.045 236.821 456.045 237.997C456.045 239.271 455.653 240.349 454.869 241.231C454.183 242.015 453.301 242.407 452.223 242.407H447.078C443.844 242.407 440.708 243.289 437.67 245.053C434.73 246.817 432.329 249.267 430.467 252.403C428.605 255.539 427.674 259.361 427.674 263.869V300.178C427.674 301.158 427.184 302.04 426.204 302.824C425.322 303.608 424.195 304 422.823 304Z" stroke="white" stroke-width="70" mask="url(#path-1-outside-1_28_10)"/>
</g>
<defs>
<filter id="filter0_dd_28_10" x="0" y="0" width="589" height="556" filterUnits="userSpaceOnUse" color-interpolation-filters="sRGB">
<feFlood flood-opacity="0" result="BackgroundImageFix"/>
<feColorMatrix in="SourceAlpha" type="matrix" values="0 0 0 0 0 0 0 0 0 0 0 0 0 0 0 0 0 0 127 0" result="hardAlpha"/>
<feOffset dy="4"/>
<feGaussianBlur stdDeviation="2"/>
<feComposite in2="hardAlpha" operator="out"/>
<feColorMatrix type="matrix" values="0 0 0 0 0 0 0 0 0 0 0 0 0 0 0 0 0 0 0.25 0"/>
<feBlend mode="normal" in2="BackgroundImageFix" result="effect1_dropShadow_28_10"/>
<feColorMatrix in="SourceAlpha" type="matrix" values="0 0 0 0 0 0 0 0 0 0 0 0 0 0 0 0 0 0 127 0" result="hardAlpha"/>
<feOffset dy="4"/>
<feGaussianBlur stdDeviation="2"/>
<feComposite in2="hardAlpha" operator="out"/>
<feColorMatrix type="matrix" values="0 0 0 0 0 0 0 0 0 0 0 0 0 0 0 0 0 0 0.25 0"/>
<feBlend mode="normal" in2="effect1_dropShadow_28_10" result="effect2_dropShadow_28_10"/>
<feBlend mode="normal" in="SourceGraphic" in2="effect2_dropShadow_28_10" result="shape"/>
</filter>
</defs>
</svg>
