<svg width="438" height="465" viewBox="0 0 438 465" fill="none" xmlns="http://www.w3.org/2000/svg">
<path d="M438 404.5C438 437.913 410.913 465 377.5 465C344.087 465 317 437.913 317 404.5C317 371.087 344.087 344 377.5 344C410.913 344 438 371.087 438 404.5Z" fill="#D9D9D9"/>
<path d="M344 60.5C344 93.9132 316.913 121 283.5 121C250.087 121 223 93.9132 223 60.5C223 27.0868 250.087 0 283.5 0C316.913 0 344 27.0868 344 60.5Z" fill="#D9D9D9"/>
<path d="M121 229.5C121 262.913 93.9132 290 60.5 290C27.0868 290 0 262.913 0 229.5C0 196.087 27.0868 169 60.5 169C93.9132 169 121 196.087 121 229.5Z" fill="#D9D9D9"/>
<path d="M82.2412 217.68L382.25 388.031L360.695 425.992L60.6862 255.641L82.2412 217.68Z" fill="#D9D9D9"/>
<path d="M46.5625 217.303L284.448 26L311.805 60.0183L73.9194 251.322L46.5625 217.303Z" fill="#D9D9D9"/>
</svg>
