<?xml version="1.0" encoding="utf-8"?>
<!-- Generator: Adobe Illustrator 23.0.3, SVG Export Plug-In . SVG Version: 6.00 Build 0)  -->
<svg version="1.1" xmlns="http://www.w3.org/2000/svg" xmlns:xlink="http://www.w3.org/1999/xlink" x="0px" y="0px"
	 viewBox="0 0 1000 1000" style="enable-background:new 0 0 1000 1000;" xml:space="preserve">
<style type="text/css">
	.seer1{fill:#E7F3FD;}
	.seer2{opacity:0.5;fill:#FFFFFF;}
	.seer3{opacity:0.25;fill:#4FA7E7;}
	.seer4{display:none;}
	.seer5{display:inline;}
	.seer6{display:none;opacity:0.5;fill:#4FA7E7;}
	.seer7{opacity:0.5;fill:#4FA7E7;}
	.seer8{fill:#F9CA89;}
	.seer9{opacity:0.1;fill:#6B4E25;}
	.seer10{fill:#BD1739;}
	.seer11{fill:#F6B8D1;}
	.seer12{opacity:0.1;}
	.seer13{fill:#F18700;}
	.seer14{fill:#E6107B;}
	.seer15{fill:#37B8DF;}
	.seer16{fill:#5AA732;}
	.seer17{fill:#C21718;}
	.seer18{fill:#684092;}
	.seer19{fill:#FFD800;}
	.seer20{fill:#9E1A18;}
</style>
<g id="Calque_2">
</g>
<g id="Calque_5">
	<circle class="seer1" cx="496.7" cy="383" r="236.7"/>
	<circle class="seer2" cx="577.7" cy="301.9" r="120.3"/>
	<path class="seer3" d="M586.5,529.9c-130.7,0-236.7-106-236.7-236.7c0-42.3,11.1-82,30.5-116.4C308.4,217.4,259.9,294.6,259.9,383
		c0,130.7,106,236.7,236.7,236.7c88.4,0,165.6-48.5,206.2-120.4C668.5,518.8,628.8,529.9,586.5,529.9z"/>
	<path class="seer3" d="M733,359.8c-17.2,38.3-53,40.3-53,40.3s-33.2,125-182.9,125s-182.9-125-182.9-125c-31.5,0.4-53.1-40-53.1-40
		c-15.9,196.7,163.6,172,163.6,172v77.1c22.8,7.3,47.1,11.3,72.3,11.3c25.3,0,49.6-4,72.4-11.3v-77.1
		C757.4,532.1,733,359.8,733,359.8z"/>
	<path class="seer3" d="M496.5,605c-66.2,0-71.9-72.9-71.9-72.9v77.1c22.8,7.3,47.1,11.3,72.3,11.3c25.3,0,49.6-4,72.4-11.3v-77.1
		C569.4,532.1,562.8,605,496.5,605z"/>
</g>
<g id="Calque_4" class="seer4">
	<g class="seer5">
		<path class="seer1" d="M732.8,383.4c0-2.9-0.1-5.9-0.2-8.8c-0.2-9.1-1-14.7-1-14.7c-0.1-0.6-0.1-1.2-0.2-1.7
			c-0.4-3.3-0.8-6.6-1.3-9.9c-0.1-0.5-0.2-1-0.2-1.5c-0.6-3.5-1.2-7.1-1.9-10.5c0-0.2-0.1-0.4-0.1-0.5c-3.1-15.2-7.7-30-13.6-44
			c-0.1-0.2-0.1-0.3-0.2-0.5c-1.4-3.4-3-6.7-4.5-10.1c0-0.1-0.1-0.2-0.1-0.2c-38.2-79.2-119.3-133.8-213.1-133.8
			c-76.4,0-144.3,36.3-187.5,92.5c-1,1.3-2.1,2.7-3.1,4.1c-1,1.4-2,2.8-2.9,4.1c-1.1,1.5-2.2,3.1-3.2,4.6c-0.7,1-1.3,2-1.9,3
			c-2.5,3.8-4.8,7.7-7.1,11.6c-0.4,0.8-0.9,1.5-1.3,2.3c-1.1,2-2.2,4.1-3.2,6.1c-0.5,1-1.1,2.1-1.6,3.1c-1,2-2,4.1-2.9,6.2
			c-0.5,1.1-1,2.1-1.4,3.2c-0.9,2.1-1.9,4.3-2.7,6.4c-0.4,1-0.8,2-1.2,3c-0.9,2.3-1.8,4.6-2.6,6.9c-0.2,0.6-0.4,1.2-0.6,1.7
			c-2.9,8.4-5.4,17-7.3,25.8c-0.1,0.5-0.2,1-0.3,1.5c-0.6,2.7-1.1,5.4-1.6,8.1c-0.1,0.8-0.3,1.5-0.4,2.3c-0.5,2.7-0.9,5.4-1.2,8.2
			c-0.1,0.7-0.2,1.3-0.3,2c-0.3,2.1-0.5,4.3-0.7,6.4l0,0c0,0,0,0,0,0.1c-0.1,0.8-0.2,1.6-0.2,2.3c0,0.2,0,0.4,0,0.6
			c-0.6,6.6-0.9,13.3-0.9,20.1c0,4.7,0.2,9.4,0.5,14c0,0.8,0.1,1.6,0.1,2.5l-0.1,0.2c0,0.1,0,0.1,0,0.2h0.1
			c10,152.7,163.6,131.6,163.6,131.6v76.9c22.7,7.3,47,11.2,72.1,11.2c25.2,0,49.5-4,72.2-11.3v-76.9
			c128.5,0,157.4-80.8,162.9-131.6h0.6c0-0.1,0-0.3,0-0.4l0,0c0.2-2.3,0.3-4.6,0.4-6.9C732.7,389.7,732.8,386.5,732.8,383.4z"/>
		<path class="seer6" d="M732.8,383.4c0-2.9-0.1-5.9-0.2-8.8c-0.2-9.1-1-14.7-1-14.7c-0.1-0.6-0.1-1.2-0.2-1.7
			c-0.4-3.3-0.8-6.6-1.3-9.9c-0.1-0.5-0.2-1-0.2-1.5c-0.6-3.5-1.2-7.1-1.9-10.5c0-0.2-0.1-0.4-0.1-0.5c-3.1-15.2-7.7-30-13.6-44
			c-0.1-0.2-0.1-0.3-0.2-0.5c-1.4-3.4-3-6.7-4.5-10.1c0-0.1-0.1-0.2-0.1-0.2c-38.2-79.2-119.3-133.8-213.1-133.8
			c-76.4,0-144.3,36.3-187.5,92.5c-1,1.3-2.1,2.7-3.1,4.1c-1,1.4-2,2.8-2.9,4.1c-1.1,1.5-2.2,3.1-3.2,4.6c-0.7,1-1.3,2-1.9,3
			c-2.5,3.8-4.8,7.7-7.1,11.6c-0.4,0.8-0.9,1.5-1.3,2.3c-1.1,2-2.2,4.1-3.2,6.1c-0.5,1-1.1,2.1-1.6,3.1c-1,2-2,4.1-2.9,6.2
			c-0.5,1.1-1,2.1-1.4,3.2c-0.9,2.1-1.9,4.3-2.7,6.4c-0.4,1-0.8,2-1.2,3c-0.9,2.3-1.8,4.6-2.6,6.9c-0.2,0.6-0.4,1.2-0.6,1.7
			c-2.9,8.4-5.4,17-7.3,25.8c-0.1,0.5-0.2,1-0.3,1.5c-0.6,2.7-1.1,5.4-1.6,8.1c-0.1,0.8-0.3,1.5-0.4,2.3c-0.5,2.7-0.9,5.4-1.2,8.2
			c-0.1,0.7-0.2,1.3-0.3,2c-0.3,2.1-0.5,4.3-0.7,6.4l0,0c0,0,0,0,0,0.1c-0.1,0.8-0.2,1.6-0.2,2.3c0,0.2,0,0.4,0,0.6
			c-0.6,6.6-0.9,13.3-0.9,20.1c0,4.7,0.2,9.4,0.5,14c0,0.8,0.1,1.6,0.1,2.5l-0.1,0.2c0,0.1,0,0.1,0,0.2h0.1
			c10,152.7,163.6,131.6,163.6,131.6v76.9c22.7,7.3,47,11.2,72.1,11.2c25.2,0,49.5-4,72.2-11.3v-76.9
			c128.5,0,157.4-80.8,162.9-131.6h0.6c0-0.1,0-0.3,0-0.4l0,0c0.2-2.3,0.3-4.6,0.4-6.9C732.7,389.7,732.8,386.5,732.8,383.4z"/>
		<path class="seer7" d="M731.6,359.9c-17.2,38.2-52.8,40.2-52.8,40.2s-33.1,124.6-182.4,124.6S314,400.1,314,400.1
			c-31.4,0.4-52.9-39.9-52.9-39.9c-15.9,196.1,163.1,171.5,163.1,171.5v76.9c22.7,7.3,47,11.2,72.1,11.2c25.2,0,49.5-4,72.2-11.3
			v-76.9C756,531.7,731.6,359.9,731.6,359.9z"/>
		<path class="seer7" d="M495.9,604.4c-66.1,0-71.7-72.7-71.7-72.7v76.9c22.7,7.3,47,11.2,72.1,11.2c25.2,0,49.5-4,72.2-11.3v-76.9
			C568.6,531.7,561.9,604.4,495.9,604.4z"/>
	</g>
</g>
<g id="Calque_3">
	<g>
		<path class="seer8" d="M260.6,399.7c-0.4-5.4-0.6-10.9-0.6-16.5c0-55.2,19-106,50.7-146.3l0,0l-34-24.3c0,0-72.9,78.6-72.9,255.7
			L287.2,627v223.6h137.1v-319c0,0-110.2-17-110.2-131.6h-53.5L260.6,399.7z"/>
		<path class="seer9" d="M260.6,399.7c-0.4-5.4-0.6-10.9-0.6-16.5c0-55.2,19-106,50.7-146.3l0,0l-34-24.3c0,0-72.9,78.6-72.9,255.7
			L287.2,627v223.6h137.1v-319c0,0-110.2-17-110.2-131.6h-53.5L260.6,399.7z"/>
		<path class="seer9" d="M325.1,742.2c0,0-11.2-38.5,54.5-104.2c0,0-149.4-52.4-119-238.3c0,0-10.6-85.2,50.1-162.8
			c0,0-94.9,97.6-67.7,287.5h-9.7L287.2,627v115.2H325.1z"/>
		<rect x="279.2" y="710.7" class="seer10" width="153.9" height="59.8"/>
		<rect x="284.2" y="770.5" class="seer11" width="144.1" height="80.2"/>
		<polygon class="seer12" points="279.2,710.7 279.2,770.5 284.2,770.5 284.2,850.7 428.2,850.7 428.2,770.5 433.1,770.5 433.1,710.7 
					"/>
		<rect x="287.2" y="684.2" class="seer13" width="137.1" height="9.1"/>
		<rect x="287.2" y="670.7" class="seer14" width="137.1" height="9.1"/>
		<rect x="287.2" y="657.2" class="seer15" width="137.1" height="9.1"/>
		<rect x="287.2" y="643.6" class="seer16" width="137.1" height="9.1"/>
		<rect x="287.2" y="643.6" class="seer12" width="137.1" height="9.1"/>
		<rect x="287.2" y="657.2" class="seer12" width="137.1" height="9.1"/>
		<rect x="287.2" y="670.7" class="seer12" width="137.1" height="9.1"/>
		<rect x="287.2" y="684.2" class="seer12" width="137.1" height="9.1"/>
	</g>
	<g>
		<path class="seer8" d="M732,399.7c0.4-5.4,0.6-10.9,0.6-16.5c0-55.2-19-106-50.7-146.3l0,0l34-24.3c0,0,72.9,78.6,72.9,255.7
			L705.5,627v223.6H568.4v-319c0,0,110.2-17,110.2-131.6h53.5L732,399.7z"/>
		<path class="seer9" d="M667.6,742.2c0,0,11.2-38.5-54.5-104.2c0,0,149.4-52.4,119-238.3c0,0,10.6-85.2-50.1-162.8
			c0,0,94.9,97.6,67.7,287.5h9.7L705.5,627v115.2H667.6z"/>
		
			<rect x="559.5" y="710.7" transform="matrix(-1 -4.500945e-11 4.500945e-11 -1 1272.9224 1481.1981)" class="seer10" width="153.9" height="59.8"/>
		
			<rect x="564.4" y="770.5" transform="matrix(-1 -2.618451e-11 2.618451e-11 -1 1272.9224 1621.2019)" class="seer11" width="144.1" height="80.2"/>
		
			<rect x="568.4" y="684.2" transform="matrix(-1 -4.469770e-11 4.469770e-11 -1 1273.9243 1377.5366)" class="seer17" width="137.1" height="9.1"/>
		
			<rect x="568.4" y="643.6" transform="matrix(-1 -4.463153e-11 4.463153e-11 -1 1273.9243 1296.3142)" class="seer18" width="137.1" height="9.1"/>
		<g>
			<path class="seer19" d="M791.2,416.4l-4.9,0.7c-0.3,0-0.6-0.2-0.6-0.5l-9.2-62.7c0-0.3,0.2-0.6,0.5-0.6l4.9-0.7
				c0.3,0,0.6,0.2,0.6,0.5l9.2,62.7C791.7,416.1,791.5,416.4,791.2,416.4z"/>
			<path class="seer20" d="M791.2,412.4c6.4-0.9,9.8-14.2,7.5-29.7s-9.3-27.2-15.7-26.2L791.2,412.4z"/>
		</g>
	</g>
</g>
</svg>
